<?xml version="1.0" encoding="UTF-8" standalone="no"?><!DOCTYPE svg PUBLIC "-//W3C//DTD SVG 1.1//EN" "http://www.w3.org/Graphics/SVG/1.1/DTD/svg11.dtd"><svg width="100%" height="100%" viewBox="0 0 488 488" version="1.1" xmlns="http://www.w3.org/2000/svg" xmlns:xlink="http://www.w3.org/1999/xlink" xml:space="preserve" xmlns:serif="http://www.serif.com/" style="fill-rule:evenodd;clip-rule:evenodd;stroke-linejoin:round;stroke-miterlimit:2;"><circle cx="243.75" cy="243.75" r="243.75" style="fill:#caaa39;"/><g><path d="M160.763,269.788l-0,-28.345l102.337,-0.165l0,89.649c-15.71,12.524 -31.915,21.945 -48.614,28.262c-16.7,6.317 -33.838,9.476 -51.416,9.476c-23.731,-0 -45.291,-5.082 -64.682,-15.244c-19.391,-10.162 -34.03,-24.857 -43.918,-44.083c-9.888,-19.226 -14.832,-40.704 -14.832,-64.434c0,-23.511 4.917,-45.456 14.749,-65.836c9.833,-20.38 23.978,-35.513 42.435,-45.401c18.457,-9.888 39.716,-14.832 63.776,-14.832c17.468,0 33.261,2.829 47.378,8.487c14.118,5.658 25.186,13.541 33.206,23.648c8.021,10.108 14.118,23.291 18.293,39.551l-28.839,7.91c-3.626,-12.304 -8.13,-21.972 -13.514,-29.004c-5.383,-7.031 -13.073,-12.661 -23.071,-16.891c-9.997,-4.23 -21.094,-6.345 -33.288,-6.345c-14.612,0 -27.247,2.225 -37.903,6.675c-10.657,4.449 -19.254,10.299 -25.791,17.55c-6.537,7.251 -11.618,15.216 -15.243,23.896c-6.153,14.941 -9.229,31.146 -9.229,48.614c0,21.533 3.708,39.551 11.124,54.053c7.416,14.502 18.21,25.268 32.382,32.3c14.173,7.031 29.224,10.546 45.154,10.546c13.843,0 27.356,-2.664 40.54,-7.992c13.183,-5.328 23.181,-11.014 29.992,-17.056l0,-44.989l-71.026,-0Z" style="fill-rule:nonzero;"/><path d="M284.88,364.545l-0,-241.59l162.982,0l-0,28.51l-131.012,-0l-0,74.817l113.379,-0l-0,28.509l-113.379,0l-0,109.754l-31.97,-0Z" style="fill-rule:nonzero;"/></g></svg>