<?xml version="1.0" encoding="UTF-8" standalone="no"?><!DOCTYPE svg PUBLIC "-//W3C//DTD SVG 1.1//EN" "http://www.w3.org/Graphics/SVG/1.1/DTD/svg11.dtd"><svg width="100%" height="100%" viewBox="0 0 600 600" version="1.1" xmlns="http://www.w3.org/2000/svg" xmlns:xlink="http://www.w3.org/1999/xlink" xml:space="preserve" xmlns:serif="http://www.serif.com/" style="fill-rule:evenodd;clip-rule:evenodd;stroke-linejoin:round;stroke-miterlimit:2;"><g><rect x="0" y="0" width="600" height="600" style="fill:#969696;"/><path d="M415.26,201.343c-0,18.731 -2.661,35.333 -7.982,49.807c-5.322,14.474 -12.771,26.82 -22.35,37.037c-9.578,10.217 -21.072,18.199 -34.482,23.946c-13.41,5.747 -28.309,9.152 -44.699,10.217l-2.235,76.946c0,3.192 -1.862,5.587 -5.587,7.183c-3.725,1.597 -9.738,2.395 -18.04,2.395c-4.469,0 -8.301,-0.16 -11.494,-0.479c-3.192,-0.319 -5.747,-0.851 -7.662,-1.596c-1.916,-0.745 -3.3,-1.756 -4.151,-3.033c-0.851,-1.278 -1.277,-2.767 -1.277,-4.47l-1.916,-88.441c-0.213,-4.895 0.16,-8.886 1.118,-11.972c0.958,-3.087 2.394,-5.641 4.31,-7.663c1.916,-2.022 4.364,-3.406 7.343,-4.151c2.98,-0.745 6.386,-1.117 10.217,-1.117l7.025,-0c13.835,-0 25.648,-2.182 35.439,-6.545c9.792,-4.364 17.72,-10.164 23.787,-17.401c6.066,-7.237 10.483,-15.751 13.25,-25.542c2.767,-9.792 4.15,-20.009 4.15,-30.651c0,-12.133 -1.702,-23.254 -5.108,-33.365c-3.406,-10.11 -8.514,-18.837 -15.325,-26.181c-6.812,-7.343 -15.379,-13.037 -25.702,-17.081c-10.324,-4.044 -22.51,-6.066 -36.558,-6.066c-12.345,-0 -23.148,1.33 -32.407,3.991c-9.259,2.66 -17.294,5.587 -24.105,8.78c-6.811,3.192 -12.399,6.066 -16.762,8.62c-4.364,2.554 -7.61,3.832 -9.738,3.832c-1.49,-0 -2.821,-0.32 -3.991,-0.958c-1.171,-0.639 -2.182,-1.863 -3.033,-3.672c-0.852,-1.809 -1.49,-4.257 -1.916,-7.343c-0.426,-3.087 -0.639,-6.971 -0.639,-11.654c0,-5.109 0.32,-8.993 0.958,-11.654c0.639,-2.66 2.022,-5.002 4.151,-7.024c2.128,-2.022 6.226,-4.683 12.292,-7.982c6.066,-3.299 13.41,-6.332 22.03,-9.099c8.621,-2.767 18.093,-5.109 28.416,-7.024c10.323,-1.916 21.019,-2.874 32.088,-2.874c22.775,0 42.357,3.246 58.747,9.738c16.39,6.492 29.906,15.272 40.548,26.341c10.643,11.068 18.518,24.052 23.627,38.952c5.108,14.899 7.663,30.65 7.663,47.253Zm-100.892,283.2c-0,7.024 -0.479,12.824 -1.437,17.401c-0.958,4.576 -2.714,8.301 -5.268,11.175c-2.555,2.873 -6.013,4.895 -10.377,6.066c-4.363,1.171 -9.738,1.756 -16.123,1.756c-6.812,-0 -12.346,-0.585 -16.603,-1.756c-4.257,-1.171 -7.716,-3.193 -10.377,-6.066c-2.66,-2.874 -4.469,-6.599 -5.427,-11.175c-0.958,-4.577 -1.437,-10.377 -1.437,-17.401c0,-7.024 0.479,-12.931 1.437,-17.72c0.958,-4.789 2.767,-8.514 5.427,-11.175c2.661,-2.66 6.12,-4.576 10.377,-5.747c4.257,-1.17 9.791,-1.756 16.603,-1.756c6.385,0 11.76,0.586 16.123,1.756c4.364,1.171 7.822,3.087 10.377,5.747c2.554,2.661 4.31,6.386 5.268,11.175c0.958,4.789 1.437,10.696 1.437,17.72Z" style="fill:#fff;fill-rule:nonzero;"/></g></svg>