<?xml version="1.0" encoding="UTF-8" standalone="no"?><!DOCTYPE svg PUBLIC "-//W3C//DTD SVG 1.1//EN" "http://www.w3.org/Graphics/SVG/1.1/DTD/svg11.dtd"><svg width="100%" height="100%" viewBox="0 0 488 488" version="1.1" xmlns="http://www.w3.org/2000/svg" xmlns:xlink="http://www.w3.org/1999/xlink" xml:space="preserve" xmlns:serif="http://www.serif.com/" style="fill-rule:evenodd;clip-rule:evenodd;stroke-linejoin:round;stroke-miterlimit:2;"><circle cx="243.75" cy="243.75" r="243.75" style="fill:#5fb644;"/><g><path d="M161.504,362.567l-93.603,-241.589l34.607,-0l62.786,175.506c5.054,14.063 9.284,27.246 12.69,39.551c3.735,-13.183 8.075,-26.367 13.018,-39.551l65.259,-175.506l32.63,-0l-94.593,241.589l-32.794,0Z" style="fill-rule:nonzero;"/><path d="M387.959,306.207l30.652,3.791c-4.834,17.907 -13.788,31.805 -26.862,41.693c-13.074,9.887 -29.773,14.831 -50.098,14.831c-25.598,0 -45.895,-7.882 -60.891,-23.648c-14.997,-15.765 -22.495,-37.875 -22.495,-66.33c0,-29.443 7.581,-52.295 22.742,-68.554c15.161,-16.26 34.826,-24.39 58.996,-24.39c23.401,-0 42.518,7.965 57.349,23.895c14.832,15.93 22.247,38.342 22.247,67.236c0,1.758 -0.055,4.395 -0.164,7.911l-130.518,-0c1.099,19.226 6.537,33.947 16.315,44.165c9.778,10.217 21.972,15.326 36.584,15.326c10.877,-0 20.16,-2.857 27.851,-8.57c7.69,-5.713 13.787,-14.831 18.292,-27.356Zm-97.394,-47.955l97.723,-0c-1.318,-14.722 -5.053,-25.763 -11.206,-33.124c-9.448,-11.426 -21.698,-17.138 -36.749,-17.138c-13.623,-0 -25.076,4.559 -34.36,13.677c-9.283,9.119 -14.419,21.314 -15.408,36.585Z" style="fill-rule:nonzero;"/></g></svg>